<svg height="512pt" viewBox="0 0 512 512" width="512pt" xmlns="http://www.w3.org/2000/svg" xmlns:xlink="http://www.w3.org/1999/xlink"><linearGradient id="a" gradientTransform="matrix(1 0 0 -1 0 -13734)" gradientUnits="userSpaceOnUse" x1="0" x2="512" y1="-13990" y2="-13990"><stop offset="0" stop-color="#00f38d"/><stop offset="1" stop-color="#009eff"/></linearGradient><path d="m512 256c0 141.386719-114.613281 256-256 256s-256-114.613281-256-256 114.613281-256 256-256 256 114.613281 256 256zm0 0" fill="url(#a)"/><path d="m387.472656 263.832031h-17.347656v-80.769531c0-22.261719-18.109375-40.371094-40.367188-40.371094h-81.40625v-17.347656c0-18.761719-15.265624-34.027344-34.03125-34.027344h-88.792968c-18.761719 0-34.027344 15.265625-34.027344 34.027344v88.796875c0 18.761719 15.265625 34.027344 34.027344 34.027344h17.980468v80.769531c0 22.261719 18.109376 40.371094 40.371094 40.371094h80.769532v17.347656c0 18.761719 15.265624 34.027344 34.027343 34.027344h88.796875c18.761719 0 34.027344-15.265625 34.027344-34.027344v-88.796875c0-18.761719-15.265625-34.027344-34.027344-34.027344zm-265.972656-49.691406v-88.796875c0-2.21875 1.808594-4.027344 4.027344-4.027344h88.792968c2.222657 0 4.03125 1.808594 4.03125 4.027344v88.796875c0 2.21875-1.808593 4.027344-4.03125 4.027344h-88.792968c-2.21875 0-4.027344-1.808594-4.027344-4.027344zm62.378906 125.167969c-5.71875 0-10.371094-4.652344-10.371094-10.371094v-80.769531h40.8125c18.765626 0 34.03125-15.265625 34.03125-34.027344v-41.449219h81.40625c5.714844 0 10.367188 4.652344 10.367188 10.371094v80.773438h-41.445312c-18.765626 0-34.03125 15.261718-34.03125 34.023437v41.449219zm207.621094 47.347656c0 2.21875-1.808594 4.027344-4.027344 4.027344h-88.792968c-2.222657 0-4.03125-1.808594-4.03125-4.027344v-88.796875c0-2.21875 1.808593-4.027344 4.03125-4.027344h88.792968c2.222656 0 4.027344 1.808594 4.027344 4.027344zm0 0" fill="#fff"/></svg>