<svg id="Capa_1" enable-background="new 0 0 512 512" height="512" viewBox="0 0 512 512" width="512" xmlns="http://www.w3.org/2000/svg"><g><g><g><g><g><g><g><circle cx="256" cy="256" fill="#65b1fc" r="256"/></g></g></g></g></g></g><path d="m512 256c0-19.391-2.156-38.279-6.241-56.436l-122.565-122.564-254.388 205.98 86.397 86.397-116.936 26.243 112.374 112.374c14.722 2.632 29.88 4.006 45.359 4.006 141.385 0 256-114.615 256-256z" fill="#4a7aff"/><g><path d="m198.351 270.446h115.298v55.715h-115.298z" fill="#e9edf5"/></g><g><path d="m256.121 270.446h57.529v55.715h-57.529z" fill="#cdd2e1"/></g><g><path d="m128.806 77h254.389v205.98h-254.389z" fill="#fff"/></g><g><path d="m256.121 77h127.074v205.98h-127.074z" fill="#e9edf5"/></g><g><path d="m98.267 308.546h315.466v87.074h-315.466z" fill="#fff"/></g><g><path d="m256.121 308.546h157.612v87.074h-157.612z" fill="#e9edf5"/></g><g><path d="m162.987 111.226h186.027v137.528h-186.027z" fill="#707789"/></g><g><path d="m256.121 111.226h92.893v137.528h-92.893z" fill="#555a66"/></g><g><path d="m309.148 336.193h79.731v28.344h-79.731z" fill="#bec3d2"/></g><g><path d="m101.227 341.466h55.158v21.234h-55.158z" fill="#dce1eb" transform="matrix(0 -1 1 0 -223.278 480.889)"/></g><g><path d="m141.308 341.466h55.158v21.234h-55.158z" fill="#dce1eb" transform="matrix(0 -1 1 0 -183.197 520.97)"/></g><g><path d="m181.389 341.466h55.158v21.234h-55.158z" fill="#dce1eb" transform="matrix(0 -1 1 0 -143.116 561.051)"/></g></g></svg>